<svg width="48" height="48" viewBox="0 0 48 48" fill="none" xmlns="http://www.w3.org/2000/svg">
  <path d="M40.5312 0.848634L47.1357 5.53809C47.7096 5.93528 48.042 6.62237 47.9932 7.32129L46.6943 25.8994C46.577 27.5755 44.4732 28.3613 43.2852 27.1738L40.2529 24.1426L32.2178 32.1758L31.8047 36.2305C31.7579 36.6883 31.5549 37.116 31.2295 37.4414L22.7422 45.9258C22.0405 46.6702 20.8455 46.756 20.0469 46.126L13.5059 41.4863C13.1893 41.2617 12.9451 40.9499 12.8027 40.5889L10.5156 34.7881L7.88965 33.7539C7.73962 33.6948 7.59734 33.6177 7.46582 33.5244L0.841797 28.8232C-0.153135 28.1171 -0.277801 26.6411 0.584961 25.7783L9.24219 17.1318C9.54828 16.8744 9.92565 16.7138 10.3262 16.6729L14.377 16.2588L22.9043 7.73047L19.6367 5.41113C18.9481 4.92207 18.6408 4.05248 18.8691 3.23926C19.0976 2.42607 19.8127 1.84416 20.6553 1.78516L39.2334 0.484376C39.6988 0.47123 40.1458 0.574948 40.5312 0.848634Z" fill="white"/>
  <path d="M17.1533 23.3643L8.62305 31.8945L1.99902 27.1924L10.5293 18.6621L13.8413 21.0132L17.1533 23.3643Z" fill="#FFC3A8"/>
  <path d="M27.417 8.48145L31.8633 12.9268L21.9131 22.876L21.9141 22.877H21.9121L17.1533 23.3643L10.5293 18.6621L15.2891 18.1758L25.9932 7.4707L27.417 8.48145Z" fill="#FFC3A8"/>
  <path d="M45.9981 7.18262L27.419 8.47949L20.795 3.78027L39.3731 2.47949L45.9981 7.18262Z" fill="#FFC3A8"/>
  <path d="M45.998 7.18198L27.419 8.47998L31.865 12.927L21.915 22.877L17.153 23.364L8.62296 31.894L17.705 35.474L21.285 44.557L29.815 36.027L30.302 31.265L40.253 21.315L44.699 25.76L45.998 7.18198Z" fill="#E1D1FB"/>
  <path d="M12.0579 33.247L17.7079 35.474L21.2879 44.556L14.6629 39.855L12.0579 33.247Z" fill="#0091EB"/>
  <path d="M45.998 7.18201L27.419 8.48001M45.998 7.18201L44.699 25.76L40.253 21.315L30.302 31.265L29.815 36.027L21.285 44.557L17.705 35.474L8.62298 31.894L17.153 23.364M45.998 7.18201L39.373 2.47998L20.795 3.77998L27.419 8.48001M27.419 8.48001L31.865 12.927L21.915 22.877M21.915 22.877L17.153 23.364M21.915 22.877L15.289 18.176L10.529 18.663L17.153 23.364M12.058 33.247L17.708 35.474L21.288 44.556L14.663 39.855L12.058 33.247ZM8.62399 31.896L17.154 23.366L10.53 18.664L1.99998 27.194L8.62399 31.896ZM31.863 12.927L27.417 8.48101L25.993 7.47101L15.288 18.177L21.912 22.878L31.863 12.928V12.927Z" stroke="#1A1F2B" stroke-width="0.5" stroke-linejoin="round"/>
</svg>
