<svg width="48" height="48" viewBox="0 0 48 48" fill="none" xmlns="http://www.w3.org/2000/svg">
  <path d="M25.5403 4.65501C27.1557 4.22274 28.6142 4.56034 29.8186 5.36107L30.0569 5.52708C32.3479 7.21388 33.5228 10.1576 34.6926 12.6492C35.1475 13.618 35.5946 14.567 36.0637 15.4743C37.1448 15.5179 38.2769 15.4891 39.3293 15.2136C40.4081 14.931 41.2151 13.9948 42.1555 13.4324C43.1396 12.8439 44.3188 12.2425 45.5041 12.4148C46.0621 12.4892 46.5705 12.7497 46.9963 13.112C47.5272 13.611 47.7737 14.2725 47.8391 14.9822C47.8868 15.9065 47.5139 16.8469 47.1545 17.5984C44.675 22.7822 38.0393 31.0903 32.761 36.0339C28.9663 39.5879 22.4999 43.7918 16.3098 45.1286C13.0995 45.8219 9.67392 45.8027 6.73266 44.1794C3.71803 42.5151 1.66264 39.4182 0.737543 34.9187C0.0848733 31.7439 0.197807 27.852 1.64379 24.7722C2.3823 23.1996 3.51216 21.7526 5.15063 20.8074C6.04111 20.2937 7.02698 19.9616 8.09301 19.8161C7.99157 18.191 8.15364 16.7293 8.74438 15.2497C9.32713 13.8973 10.1255 12.6857 11.0403 11.5329C14.2882 7.44007 18.8883 7.04748 21.7278 6.98118C22.9595 5.83592 24.2184 5.00895 25.5403 4.65501ZM45.5041 12.4148C45.5256 12.4179 45.5257 12.4178 45.5041 12.4148V12.4148Z" fill="white"/>
  <path d="M25.4043 28.4064C18.7867 32.7324 14.9773 31.1933 12.1596 28.8457C11.6018 29.372 10.8074 30.6801 11.4161 31.9058C12.4343 33.9561 21.1655 36.2231 30.6494 28.4526C38.2886 22.1935 36.9216 20.4747 34.9226 17.9611C34.8324 17.8478 34.741 17.7329 34.6491 17.6158C35.0743 20.9078 32.022 24.0804 25.4043 28.4064Z" fill="#E1D1FB"/>
  <path fill-rule="evenodd" clip-rule="evenodd" d="M2.95139 34.4633C4.61565 42.5586 9.98813 44.1801 15.8321 42.9182C23.6805 41.0656 27.4502 36.1091 33.08 28.7069C33.9049 27.6223 34.7697 26.4853 35.6931 25.2978C38.376 21.8475 41.2032 19.1157 43.0999 17.2831C44.8513 15.5908 45.8092 14.6652 45.1272 14.6486C44.2727 14.6279 42.4153 15.8962 41.3351 16.7589C39.9294 17.8816 36.1028 17.8551 34.6491 17.6158C33.9205 16.3231 33.2714 14.9408 32.6465 13.6097C30.1317 8.25383 28.0072 3.72901 22.6648 9.22483C21.9911 10.0322 21.3375 10.9972 20.6728 11.9786C18.137 15.7227 15.4394 19.7056 10.8443 16.0878C10.1835 17.7424 10.1887 19.4403 10.6644 22.0961C3.52037 21.0015 1.78034 28.7671 2.95139 34.4633ZM34.6491 17.6158C34.741 17.7329 34.8324 17.8478 34.9226 17.9611C36.9216 20.4747 38.2886 22.1935 30.6494 28.4526C21.1655 36.2231 12.4343 33.9561 11.4161 31.9058C10.8074 30.6801 11.6018 29.372 12.1596 28.8457C14.9773 31.1933 18.7867 32.7324 25.4043 28.4064C32.022 24.0804 35.0743 20.9078 34.6491 17.6158Z" fill="#E1D1FB"/>
  <path d="M25.4043 28.4064C18.7866 32.7323 14.9773 31.1933 12.1596 28.8457C11.6018 29.372 10.8073 30.68 11.416 31.9057C12.4343 33.9561 21.1655 36.2231 30.6494 28.4526C38.2886 22.1935 36.9216 20.4747 34.9225 17.9611C34.8324 17.8478 34.741 17.7328 34.649 17.6158C35.0743 20.9078 32.0219 24.0804 25.4043 28.4064Z" fill="#FFC3A8"/>
  <path d="M12.8115 12.9382C11.8846 14.1064 11.2431 15.0892 10.8443 16.0878C15.4394 19.7056 18.137 15.7227 20.6728 11.9786C21.3375 10.9972 21.9911 10.0322 22.6648 9.22482L22.6431 9.22513C19.8677 9.26388 15.6809 9.32234 12.8115 12.9382Z" fill="#0091EB"/>
  <path d="M31.2148 34.3835C36.3716 29.5538 42.7978 21.4668 45.1147 16.6227C45.8044 15.1807 45.6627 14.6616 45.1272 14.6486C45.8092 14.6652 44.8513 15.5908 43.0999 17.2831C41.2032 19.1157 38.376 21.8475 35.6931 25.2977C34.7696 26.4852 33.9048 27.6223 33.08 28.7069C27.4502 36.1091 23.6804 41.0656 15.8321 42.9182C21.5007 41.6941 27.613 37.757 31.2148 34.3835Z" fill="#0091EB"/>
  <path d="M34.6491 17.6158C36.1028 17.8551 39.9294 17.8816 41.3351 16.7589C42.4153 15.8962 44.2727 14.6279 45.1272 14.6486M34.6491 17.6158C35.0743 20.9078 32.022 24.0804 25.4043 28.4064C18.7867 32.7324 14.9773 31.1933 12.1596 28.8457M34.6491 17.6158C33.9205 16.3232 33.2715 14.9408 32.6465 13.6098C30.1318 8.25396 28.0072 3.72901 22.6648 9.22483M34.6491 17.6158C34.741 17.7328 34.8324 17.8478 34.9226 17.9611C36.9216 20.4747 38.2886 22.1935 30.6494 28.4526C21.1655 36.2231 12.4343 33.9561 11.4161 31.9058C10.8074 30.6801 11.6018 29.372 12.1596 28.8457M12.1596 28.8457L11.8778 27.6442C11.3478 25.384 10.9318 23.5887 10.6644 22.0961M10.8443 16.0878C11.2431 15.0892 11.8846 14.1064 12.8115 12.9382C15.6809 9.32235 19.8677 9.26388 22.6431 9.22513L22.6648 9.22483M10.8443 16.0878C10.1835 17.7424 10.1887 19.4403 10.6644 22.0961M10.8443 16.0878C15.4394 19.7056 18.137 15.7227 20.6728 11.9786C21.3375 10.9972 21.9911 10.0322 22.6648 9.22483M10.6644 22.0961C3.52037 21.0015 1.78034 28.7671 2.95139 34.4633C4.61566 42.5586 9.98813 44.1801 15.8321 42.9182M15.8321 42.9182C21.5007 41.6941 27.613 37.757 31.2149 34.3835C36.3716 29.5538 42.7978 21.4668 45.1148 16.6227C45.8045 15.1807 45.6627 14.6616 45.1272 14.6486M15.8321 42.9182C23.6805 41.0656 27.4502 36.1091 33.08 28.7069C33.9049 27.6223 34.7697 26.4852 35.6931 25.2978C38.376 21.8475 41.2032 19.1157 43.0999 17.2831C44.8513 15.5908 45.8092 14.6652 45.1272 14.6486" stroke="#1A1F2B" stroke-width="0.5"/>
</svg>
