<svg width="48" height="48" viewBox="0 0 48 48" fill="none" xmlns="http://www.w3.org/2000/svg">
  <path d="M26.4833 0.370868C27.4985 0.346711 28.5013 0.563592 29.41 0.998165L30.3486 1.5549L35.568 6.47953C36.4139 7.21237 37.0625 8.15883 37.4344 9.23326L37.5069 9.45654L38.0839 11.3471C38.4476 11.418 38.806 11.5203 39.1549 11.6545C40.0865 12.0128 40.9191 12.5851 41.5906 13.3218L45.7401 17.3031C47.009 18.3841 47.8107 19.9158 47.9709 21.5772L47.9922 21.8759C48.0658 23.3654 47.6187 24.8344 46.7289 26.0301C46.7191 26.0432 46.7089 26.056 46.6989 26.0688L46.5626 26.2428C46.5525 26.2557 46.5421 26.2688 46.5317 26.2815L45.1437 27.9642L45.1447 27.9652C43.8799 29.5003 42.3545 30.7968 40.6424 31.8005C40.7302 31.8497 40.817 31.9008 40.9024 31.9542C41.6178 32.4011 42.2389 32.9855 42.7292 33.6727C43.22 34.3606 43.5699 35.1377 43.7596 35.9587C43.9495 36.7808 43.9751 37.6327 43.836 38.465C43.6967 39.2973 43.3947 40.0943 42.9477 40.8098C42.5008 41.5249 41.9173 42.1473 41.2301 42.6376C40.6293 43.0661 39.9588 43.3869 39.2506 43.5877L38.9442 43.667C38.2247 43.8331 37.4822 43.8735 36.7501 43.7878L36.4369 43.7433L34.2844 43.3828C31.9614 42.9944 29.7454 42.1251 27.7775 40.8311C27.7967 41.1601 27.7929 41.4911 27.7611 41.8208C27.68 42.6617 27.433 43.4775 27.0371 44.2218C26.6409 44.9667 26.1023 45.6269 25.451 46.1636C24.8023 46.6981 24.053 47.1031 23.2434 47.3505C22.4349 47.5976 21.5869 47.6816 20.7487 47.6009C19.9106 47.5201 19.0927 47.2752 18.3458 46.8779C17.6439 46.5044 17.0201 46.003 16.5026 45.4039L12.1028 41.2177L12.1038 41.2158C12.0852 41.1983 12.0656 41.1818 12.0477 41.1636C11.3255 40.4268 10.7926 39.5267 10.4925 38.5423L9.91354 36.6488C8.87671 36.446 7.89496 35.9907 7.06316 35.3053C6.80054 35.0888 6.56241 34.8544 6.34597 34.6103L2.26032 30.6986C1.64388 30.1736 1.13202 29.5381 0.752484 28.8245C0.357118 28.0808 0.110561 27.2648 0.0294967 26.4235C-0.0512825 25.5835 0.034294 24.7343 0.280802 23.9279C0.527484 23.1214 0.930936 22.3705 1.46774 21.7193L2.85475 20.0346C4.11486 18.5045 5.62852 17.2175 7.3193 16.2215L6.06953 15.2279L6.0676 15.2269C5.97285 15.1514 5.89592 15.0777 5.83853 15.0172C4.9117 14.04 4.31515 12.7954 4.13351 11.4602C3.95207 10.1252 4.19484 8.76621 4.8275 7.57658C5.45996 6.38788 6.44999 5.42559 7.65856 4.82961C8.86713 4.23394 10.234 4.03311 11.5625 4.25547L13.716 4.616L14.1461 4.69429C16.2912 5.11022 18.3372 5.93775 20.1697 7.13292C20.1872 7.14435 20.2044 7.15623 20.2219 7.16772C20.1755 6.36611 20.2794 5.55821 20.5331 4.78708L20.6153 4.55317C21.0478 3.39181 21.8077 2.37699 22.8075 1.63513L23.0095 1.49014C24.033 0.79045 25.2397 0.400609 26.4833 0.370868Z" fill="white"/>
  <path d="M22.592 45.2204C22.0645 45.3816 21.5105 45.4373 20.9615 45.3844C20.4125 45.3315 19.8793 45.1709 19.3924 44.9119C18.9055 44.6529 18.4743 44.3006 18.1236 43.8749C17.7728 43.4493 17.5094 42.9587 17.3482 42.4313L16.7108 40.3429C15.6597 36.9075 15.9041 33.206 17.3977 29.9385C16.7831 30.3075 16.2362 30.7788 15.7804 31.3321L14.3908 33.0167C13.6825 33.8763 12.6617 34.4192 11.553 34.5261C10.4443 34.633 9.33856 34.2952 8.479 33.5868C7.61944 32.8784 7.07648 31.8576 6.96957 30.749C6.86266 29.6403 7.20054 28.5345 7.9089 27.675L9.29753 25.9904C10.5304 24.4941 12.0472 23.2566 13.7605 22.3491C15.4738 21.4417 17.3497 20.8823 19.2802 20.7031C18.5069 20.1567 17.6201 19.7919 16.6861 19.6362L14.5324 19.2759C13.4338 19.0921 12.4532 18.4795 11.8064 17.5728C11.1595 16.666 10.8993 15.5395 11.0831 14.4409C11.2668 13.3424 11.8794 12.3618 12.7862 11.7149C13.6929 11.068 14.8195 10.8079 15.918 10.9916L18.0717 11.3519C20.113 11.6931 22.0592 12.4617 23.7829 13.6072C25.5067 14.7527 26.969 16.2493 28.0742 17.9991C28.3468 16.8952 28.315 15.738 27.9822 14.6507L27.3438 12.5624C27.1826 12.0349 27.1269 11.4809 27.1799 10.9319C27.2328 10.3829 27.3933 9.84977 27.6523 9.36284C28.1754 8.37945 29.0677 7.64412 30.1329 7.31862C31.1981 6.99312 32.3491 7.10411 33.3324 7.62717C34.3158 8.15024 35.0512 9.04253 35.3767 10.1078L36.0151 12.1961C37.0658 15.6317 36.8211 19.3332 35.3272 22.6005C35.9417 22.2315 36.4887 21.7602 36.9444 21.2069L38.3331 19.5223C39.0416 18.6629 40.0624 18.1201 41.1711 18.0134C42.2798 17.9067 43.3855 18.2447 44.2449 18.9532C45.1043 19.6617 45.6471 20.6826 45.7538 21.7913C45.8606 22.9 45.5225 24.0056 44.814 24.865L43.4254 26.5486C42.1926 28.0448 40.676 29.2823 38.9629 30.1897C37.2497 31.0972 35.374 31.6566 33.4437 31.8359C34.217 32.3825 35.1038 32.7472 36.0378 32.9029L38.1905 33.2631C38.7345 33.3541 39.2552 33.5514 39.7229 33.8436C40.1907 34.1358 40.5963 34.5173 40.9166 34.9663C41.2368 35.4152 41.4656 35.9229 41.5897 36.4602C41.7138 36.9976 41.7308 37.5542 41.6398 38.0981C41.5489 38.6421 41.3516 39.1628 41.0594 39.6305C40.7672 40.0982 40.3857 40.5038 39.9367 40.8241C39.4878 41.1444 38.9801 41.3731 38.4427 41.4973C37.9054 41.6214 37.3488 41.6384 36.8049 41.5474L34.6522 41.1871C32.6109 40.8459 30.6647 40.0774 28.9409 38.9319C27.2172 37.7864 25.7549 36.2897 24.6497 34.5399C24.3771 35.6438 24.4089 36.801 24.7417 37.8883L25.3801 39.9767C25.5413 40.5041 25.597 41.0581 25.5441 41.6071C25.4912 42.1561 25.3306 42.6893 25.0716 43.1762C24.8126 43.6632 24.4603 44.0943 24.0346 44.4451C23.609 44.7958 23.1194 45.0593 22.592 45.2204Z" fill="#E1D1FB"/>
  <path d="M35.3252 22.6005C36.6291 19.7486 36.9863 16.5543 36.3447 13.4848C37.0252 13.4016 37.7158 13.4868 38.3557 13.7328C38.9956 13.9789 39.5653 14.3784 40.0147 14.8962L44.2954 19.0037C43.856 18.5989 42.6029 17.8051 41.0312 18.0288C39.9738 18.1646 39.0081 18.6988 38.3311 19.5223L36.9435 21.2069C36.4875 21.7603 35.9402 22.2316 35.3252 22.6005Z" fill="#0091EB"/>
  <path d="M18.1044 43.8545C17.7618 43.4337 17.5043 42.9503 17.3462 42.4313L16.7088 40.3429C15.6577 36.9075 15.9021 33.206 17.3957 29.9385C16.7811 30.3075 16.2342 30.7789 15.7784 31.3321L14.3898 33.0167C13.7045 33.8504 12.7237 34.3872 11.6521 34.5152C11.7432 34.9467 11.853 35.3763 11.9837 35.8048L12.6221 37.8932C12.8182 38.5369 13.1665 39.1239 13.6376 39.6045L18.1044 43.8545Z" fill="#0091EB"/>
  <path d="M7.94453 33.0592C7.30913 32.3078 6.95771 31.3572 6.95156 30.3732C6.94541 29.3892 7.28492 28.4342 7.91088 27.675L9.29852 25.9904C10.5314 24.4941 12.0482 23.2566 13.7615 22.3491C15.4748 21.4417 17.3507 20.8823 19.2812 20.7031C18.5079 20.1567 17.6211 19.7919 16.6871 19.6361L14.5333 19.2759C13.8449 19.1609 13.196 18.8761 12.6454 18.4472C12.0948 18.0182 11.6598 17.4587 11.38 16.8193C8.71599 17.6824 6.35455 19.2897 4.5744 21.4514L3.18577 23.1359C2.83496 23.5615 2.57139 24.0519 2.41013 24.5793C2.24887 25.1067 2.19307 25.6607 2.24592 26.2097C2.29877 26.7587 2.45922 27.2919 2.71813 27.7788C2.97704 28.2658 3.32933 28.697 3.75488 29.0478L7.94453 33.0592Z" fill="#0091EB"/>
  <path d="M11.2573 16.5075C11.0191 15.8191 10.9641 15.0806 11.0977 14.3644C11.2312 13.6483 11.5488 12.9793 12.0191 12.423C12.4894 11.8667 13.0963 11.4423 13.7803 11.1915C14.4642 10.9408 15.2016 10.8722 15.9201 10.9926L18.0728 11.3519C19.9286 11.6627 21.6636 12.3159 23.2126 13.2463C22.1009 11.5517 20.6507 10.1055 18.9532 8.99831C17.2557 7.89116 15.3476 7.14709 13.3487 6.81284L11.195 6.45257C10.3265 6.30712 9.4342 6.43835 8.64437 6.82773C7.85453 7.2171 7.20708 7.84491 6.79356 8.62237C6.38005 9.39984 6.22139 10.2876 6.34002 11.1602C6.45866 12.0328 6.84858 12.846 7.45466 13.4848L11.2573 16.5075Z" fill="#0091EB"/>
  <path d="M23.3779 13.3462C25.2762 14.521 26.8825 16.1121 28.0753 17.9991C28.3479 16.8952 28.3161 15.738 27.9832 14.6507L27.3449 12.5624C27.0807 11.6976 27.1028 10.7707 27.4077 9.91946C27.7126 9.06823 28.2841 8.33814 29.0372 7.83777C29.7904 7.33739 30.6849 7.09345 31.5877 7.14222C32.4906 7.19099 33.3536 7.52986 34.0485 8.10844L28.976 3.30811C28.2558 2.82517 27.4039 2.57697 26.537 2.59759C25.6702 2.61822 24.831 2.90666 24.1346 3.42331C23.4383 3.93996 22.9189 4.6595 22.6478 5.48313C22.3768 6.30675 22.3673 7.19409 22.6207 8.02332L23.2581 10.1117C23.5793 11.1611 23.6202 12.2762 23.3769 13.3462H23.3779Z" fill="#0091EB"/>
  <path d="M9.29754 25.9904L7.90891 27.675C7.20055 28.5345 6.86266 29.6403 6.96958 30.749C7.07649 31.8576 7.61945 32.8784 8.47901 33.5868C9.33857 34.2952 10.4443 34.633 11.553 34.5261C12.6617 34.4192 13.6825 33.8763 14.3908 33.0167L15.7805 31.3321C16.2362 30.7788 16.7831 30.3075 17.3977 29.9385C15.9041 33.206 15.6597 36.9075 16.7108 40.3429L17.3482 42.4313C17.5094 42.9587 17.7728 43.4493 18.1236 43.8749C18.4743 44.3006 18.9055 44.6529 19.3924 44.9119C19.8793 45.1709 20.4125 45.3315 20.9615 45.3844C21.5105 45.4373 22.0645 45.3816 22.592 45.2204C23.1194 45.0593 23.609 44.7958 24.0346 44.4451C24.4603 44.0943 24.8126 43.6632 25.0716 43.1762C25.3306 42.6893 25.4912 42.1561 25.5441 41.6071C25.597 41.0581 25.5413 40.5041 25.3801 39.9767L24.7417 37.8883C24.4089 36.801 24.3771 35.6438 24.6497 34.5399C25.7549 36.2897 27.2172 37.7864 28.941 38.9319C30.6647 40.0774 32.6109 40.8459 34.6522 41.1871L36.8049 41.5474C37.3488 41.6384 37.9054 41.6214 38.4428 41.4973C38.9801 41.3731 39.4878 41.1444 39.9367 40.8241C40.3857 40.5038 40.7672 40.0982 41.0594 39.6305C41.3516 39.1628 41.5489 38.6421 41.6399 38.0981C41.7308 37.5542 41.7138 36.9976 41.5897 36.4602C41.4656 35.9229 41.2369 35.4152 40.9166 34.9663C40.5963 34.5173 40.1907 34.1358 39.7229 33.8436C39.2552 33.5514 38.7345 33.3541 38.1906 33.2631L36.0378 32.9029C35.1038 32.7472 34.217 32.3825 33.4437 31.8359C35.374 31.6566 37.2498 31.0972 38.9629 30.1897C40.676 29.2823 42.1926 28.0448 43.4254 26.5486L44.814 24.865C45.5225 24.0056 45.8606 22.9 45.7538 21.7913C45.6471 20.6826 45.1043 19.6617 44.2449 18.9532C43.3855 18.2447 42.2798 17.9067 41.1711 18.0134C40.0624 18.1201 39.0416 18.6629 38.3331 19.5223L36.9444 21.2069M9.29754 25.9904C10.5304 24.4941 12.0472 23.2566 13.7605 22.3491C15.4738 21.4417 17.3497 20.8823 19.2802 20.7031C18.5069 20.1567 17.6201 19.7919 16.6861 19.6362L14.5324 19.2759M9.29754 25.9904L7.91088 27.675C7.28492 28.4342 6.94541 29.3892 6.95156 30.3732C6.95771 31.3572 7.30913 32.3078 7.94453 33.0592L3.75488 29.0478C3.32933 28.697 2.97704 28.2658 2.71813 27.7788C2.45922 27.2919 2.29877 26.7587 2.24592 26.2097C2.19307 25.6607 2.24887 25.1067 2.41013 24.5793C2.57139 24.0519 2.83496 23.5615 3.18577 23.1359L4.5744 21.4514C6.35455 19.2897 8.71599 17.6824 11.38 16.8193C11.6598 17.4587 12.0948 18.0182 12.6454 18.4472C13.196 18.8761 13.8439 19.1609 14.5324 19.2759M14.5324 19.2759C13.4338 19.0921 12.4532 18.4795 11.8064 17.5728C11.1595 16.666 10.8993 15.5395 11.0831 14.4409C11.2668 13.3424 11.8794 12.3618 12.7862 11.7149C13.6929 11.068 14.8195 10.8079 15.918 10.9916L18.0717 11.3519C20.113 11.6931 22.0592 12.4617 23.783 13.6072C25.5067 14.7527 26.969 16.2493 28.0742 17.9991C28.3468 16.8952 28.315 15.738 27.9822 14.6507L27.3438 12.5624C27.1826 12.0349 27.1269 11.4809 27.1799 10.9319C27.2328 10.3829 27.3934 9.84976 27.6524 9.36284C28.1754 8.37945 29.0677 7.64412 30.1329 7.31862C31.1982 6.99312 32.3491 7.10411 33.3325 7.62717C34.3158 8.15024 35.0512 9.04253 35.3767 10.1078L36.0151 12.1961C37.0658 15.6317 36.8211 19.3332 35.3272 22.6005C35.9417 22.2315 36.4887 21.7602 36.9444 21.2069M36.9444 21.2069L38.3311 19.5223C39.0081 18.6988 39.9738 18.1646 41.0312 18.0288C42.6029 17.8051 43.856 18.5989 44.2954 19.0037L40.0147 14.8962C39.5653 14.3784 38.9956 13.9789 38.3557 13.7328C37.7158 13.4868 37.0252 13.4016 36.3447 13.4848C36.9863 16.5543 36.6291 19.7486 35.3253 22.6005C35.9402 22.2316 36.4884 21.7603 36.9444 21.2069ZM18.1044 43.8545C17.7618 43.4337 17.5043 42.9503 17.3462 42.4313L16.7088 40.3429C15.6577 36.9075 15.9021 33.206 17.3957 29.9385C16.7811 30.3075 16.2342 30.7789 15.7784 31.3321L14.3898 33.0167C13.7045 33.8504 12.7237 34.3872 11.6521 34.5152C11.7432 34.9467 11.8531 35.3763 11.9837 35.8048L12.6221 37.8932C12.8182 38.537 13.1665 39.1239 13.6376 39.6045L18.1044 43.8545ZM11.2573 16.5075C11.0191 15.8191 10.9641 15.0806 11.0977 14.3644C11.2312 13.6483 11.5488 12.9793 12.0191 12.423C12.4894 11.8667 13.0963 11.4423 13.7803 11.1915C14.4642 10.9408 15.2016 10.8722 15.9201 10.9926L18.0728 11.3519C19.9286 11.6627 21.6636 12.3159 23.2126 13.2463C22.1009 11.5517 20.6507 10.1055 18.9532 8.99831C17.2557 7.89116 15.3476 7.14709 13.3487 6.81284L11.195 6.45257C10.3265 6.30712 9.4342 6.43835 8.64437 6.82773C7.85453 7.2171 7.20708 7.84491 6.79356 8.62237C6.38005 9.39984 6.22139 10.2876 6.34002 11.1602C6.45866 12.0328 6.84858 12.846 7.45466 13.4848L11.2573 16.5075ZM23.3779 13.3462C25.2762 14.521 26.8825 16.1121 28.0753 17.9991C28.3479 16.8952 28.3161 15.738 27.9832 14.6507L27.3449 12.5624C27.0807 11.6976 27.1028 10.7707 27.4077 9.91946C27.7126 9.06823 28.2841 8.33814 29.0372 7.83777C29.7904 7.33739 30.6849 7.09345 31.5877 7.14222C32.4906 7.19099 33.3536 7.52986 34.0485 8.10844L28.976 3.30811C28.2558 2.82517 27.4039 2.57697 26.537 2.59759C25.6702 2.61822 24.831 2.90666 24.1346 3.42331C23.4383 3.93996 22.9189 4.6595 22.6479 5.48313C22.3768 6.30675 22.3673 7.19409 22.6207 8.02332L23.2581 10.1117C23.5793 11.1611 23.6202 12.2762 23.3769 13.3462H23.3779Z" stroke="#1A1F2B" stroke-width="0.5" stroke-linecap="round" stroke-linejoin="round"/>
</svg>
