<svg width="49" height="48" viewBox="0 0 49 48" fill="none" xmlns="http://www.w3.org/2000/svg">
  <path d="M35.1678 0.014656C37.8111 0.119934 40.7004 0.820634 42.578 2.81348C43.9167 4.11088 44.7543 5.45834 46.0585 7.1211C47.6004 9.08714 48.0599 11.1019 48.0174 13.5293C47.9731 16.0562 47.3915 19.0769 46.3612 22.3467C44.7587 27.4319 41.7697 32.9588 37.0917 37.544C33.0244 41.5304 28.348 44.2958 23.8719 45.9756C20.1926 47.3563 16.5923 48.0242 13.5194 47.999C10.5419 47.9746 7.66804 47.2905 5.89439 45.5176C5.10974 44.7332 3.69041 43.0899 2.55064 41.5752C1.38632 40.3202 0.758599 38.5867 0.486189 36.7617C-0.0776225 32.9846 0.705824 29.0319 1.92467 25.4619C3.61895 20.4995 6.68738 15.1783 11.2772 10.6797C15.7096 6.33543 20.7907 3.34391 25.5858 1.65626C28.9775 0.462554 32.287 -0.100037 35.1678 0.014656Z" fill="white"/>
  <path d="M4.08588 40.2896C4.09748 40.3015 4.10915 40.3133 4.12087 40.325C6.55844 42.7616 13.0032 42.944 19.982 40.325C24.2181 38.7353 28.651 36.1134 32.504 32.337C36.9168 28.0118 39.7483 22.7831 41.2658 17.9674C43.2272 11.7434 42.9937 6.20906 41.1429 4.20636C41.9115 4.93911 42.657 5.95786 43.3175 6.86039C43.8176 7.54374 44.269 8.16046 44.6446 8.53596C46.5711 10.4617 46.4436 15.4299 44.4534 21.7459C42.9358 26.5617 40.1044 31.7904 35.6915 36.1156C31.8386 39.8919 27.4057 42.5138 23.1695 44.1035C16.1907 46.7225 9.74598 46.5402 7.3084 44.1035C6.59184 43.3872 5.19407 41.7716 4.08588 40.2896Z" fill="#0091EB"/>
  <path d="M3.81735 26.1078C1.66362 32.4159 1.87409 38.0791 4.12083 40.325C6.5584 42.7616 13.0032 42.944 19.982 40.325C10.5356 37.5687 7.03989 34.4225 3.81735 26.1078Z" fill="#FFC3A8"/>
  <path d="M41.0598 4.11989C38.4675 1.52865 32.6638 1.2852 26.2496 3.54266C33.9178 7.32851 37.2482 10.4402 41.2658 17.9674C43.2561 11.6514 42.9863 6.04565 41.0598 4.11989Z" fill="#FFC3A8"/>
  <path d="M32.504 32.337C28.651 36.1134 24.2181 38.7353 19.982 40.325C10.5356 37.5687 7.03992 34.4225 3.81738 26.1078C5.41867 21.4178 8.32686 16.3713 12.6767 12.1079C16.8961 7.97235 21.7248 5.1352 26.2497 3.54266C33.9178 7.32851 37.2482 10.4402 41.2658 17.9674C39.7483 22.7831 36.9168 28.0118 32.504 32.337Z" fill="#E1D1FB"/>
  <path d="M4.08588 40.2896C4.09748 40.3015 4.10915 40.3133 4.12087 40.325C6.55844 42.7616 13.0032 42.944 19.982 40.325C24.2181 38.7353 28.651 36.1134 32.504 32.337C36.9168 28.0118 39.7483 22.7831 41.2658 17.9674C43.2272 11.7434 42.9937 6.20906 41.1429 4.20636C41.9115 4.93911 42.657 5.95786 43.3175 6.86039C43.8176 7.54374 44.269 8.16046 44.6446 8.53596C46.5711 10.4617 46.4436 15.4299 44.4534 21.7459C42.9358 26.5617 40.1044 31.7904 35.6915 36.1156C31.8386 39.8919 27.4057 42.5138 23.1695 44.1035C16.1907 46.7225 9.74598 46.5402 7.3084 44.1035C6.59184 43.3872 5.19407 41.7716 4.08588 40.2896Z" stroke="#1A1F2B" stroke-width="0.5"/>
  <path d="M3.81735 26.1078C1.66362 32.4159 1.87409 38.0791 4.12083 40.325C6.5584 42.7616 13.0032 42.944 19.982 40.325C10.5356 37.5687 7.03989 34.4225 3.81735 26.1078Z" stroke="#1A1F2B" stroke-width="0.5"/>
  <path d="M41.0598 4.11989C38.4675 1.52865 32.6638 1.2852 26.2496 3.54266C33.9178 7.32851 37.2482 10.4402 41.2658 17.9674C43.2561 11.6514 42.9863 6.04565 41.0598 4.11989Z" stroke="#1A1F2B" stroke-width="0.5"/>
  <path d="M32.504 32.337C28.651 36.1134 24.2181 38.7353 19.982 40.325C10.5356 37.5687 7.03992 34.4225 3.81738 26.1078C5.41867 21.4178 8.32686 16.3713 12.6767 12.1079C16.8961 7.97235 21.7248 5.1352 26.2497 3.54266C33.9178 7.32851 37.2482 10.4402 41.2658 17.9674C39.7483 22.7831 36.9168 28.0118 32.504 32.337Z" stroke="#1A1F2B" stroke-width="0.5"/>
  <path d="M14.5108 28.8547C15.198 27.6942 16.1778 26.1914 17.3603 24.5796M17.3603 24.5796C18.4475 23.0978 19.706 21.5238 21.0658 20.0391M17.3603 24.5796C16.3863 23.7484 15.5458 22.901 14.5108 21.7472M17.3603 24.5796C18.1658 25.2671 19.0626 25.9435 20.2362 26.773M21.0658 20.0391C22.4193 18.5613 23.8732 17.172 25.3585 16.0499M21.0658 20.0391C20.2497 19.1662 19.5163 18.2589 18.6414 17.0767M21.0658 20.0391C21.9212 20.9541 22.8675 21.8312 24.1632 22.9475M25.3585 16.0499C26.813 14.9512 28.2976 14.1087 29.7476 13.6904M25.3585 16.0499C24.6436 15.173 23.9952 14.258 23.2346 13.0883M25.3585 16.0499C26.1872 17.0662 27.1052 18.0314 28.3909 19.2824" stroke="#1A1F2B" stroke-width="0.5" stroke-linecap="round" stroke-linejoin="round"/>
</svg>
