<svg width="48" height="48" viewBox="0 0 48 48" fill="none" xmlns="http://www.w3.org/2000/svg">
  <path d="M26.1669 0.0400349C27.8477 -0.172696 29.5564 0.53703 30.5927 1.875C32.8959 0.536257 35.9403 1.37013 37.2392 3.69629C37.8832 4.84952 38.024 6.23891 37.6289 7.49804C39.1382 8.18265 40.2178 9.64093 40.4267 11.29C40.5385 12.173 40.402 13.0612 40.0458 13.8613C41.4713 14.5653 42.487 15.9765 42.7011 17.5557H42.7031L43.6445 23.8184C43.6445 25.1855 43.5604 26.3528 42.6914 27.4824L42.6923 27.4834L33.7705 39.0928L33.7695 39.0918C31.0533 42.687 27.6061 45.9288 23.5849 47.3047C19.3823 48.7426 14.8462 48.0408 10.4345 44.3037C8.17407 42.389 6.24352 39.46 5.78022 36.4814L4.75972 29.918C4.75711 29.9068 4.75334 29.8959 4.75093 29.8848C4.3073 27.8266 4.26546 25.8561 4.33296 24.2744C4.44783 21.571 5.03807 18.2446 5.66792 15.166C6.21645 12.4849 6.70649 9.75393 7.37007 7.09961C7.59217 5.91066 8.2368 4.84206 9.1855 4.09179C10.1318 3.34345 11.3165 2.96207 12.5214 3.01757C13.8153 3.07401 15.0389 3.62586 15.9375 4.55859C17.1196 5.78578 17.3455 7.29258 17.3544 8.91015L22.9589 1.86816C23.736 0.867974 24.9099 0.199393 26.1669 0.0400349Z" fill="white"/>
  <path d="M37.8843 13.6174C38.3365 13.0258 38.5375 12.2799 38.4439 11.5411C38.3504 10.8024 37.9697 10.1302 37.3843 9.66999C36.7989 9.20977 36.0559 8.99853 35.3159 9.08197C34.576 9.16541 33.8986 9.53682 33.4304 10.1159L35.2282 7.82746C35.463 7.53544 35.6376 7.19974 35.7418 6.83978C35.846 6.47983 35.8778 6.10277 35.8353 5.73045C35.7927 5.35814 35.6768 4.99796 35.4941 4.67077C35.3114 4.34358 35.0656 4.05589 34.7709 3.82436C34.4763 3.59283 34.1386 3.42205 33.7775 3.32192C33.4164 3.2218 33.039 3.19431 32.6672 3.24105C32.2954 3.28779 31.9365 3.40783 31.6114 3.59422C31.2863 3.78061 31.0015 4.02965 30.7733 4.32691L28.9765 6.61431C29.2125 6.32247 29.3882 5.98666 29.4932 5.62637C29.5983 5.26608 29.6308 4.8885 29.5888 4.51556C29.5467 4.14262 29.431 3.78176 29.2483 3.45392C29.0656 3.12609 28.8196 2.83782 28.5245 2.60587C28.2295 2.37391 27.8913 2.20289 27.5296 2.10274C27.1679 2.00258 26.7899 1.9753 26.4176 2.02246C26.0453 2.06962 25.686 2.19029 25.3607 2.37746C25.0354 2.56463 24.7505 2.81457 24.5227 3.11276L15.393 14.5867L15.3511 8.04131C15.3462 7.25901 15.0408 6.50853 14.498 5.94513C13.9552 5.38173 13.2167 5.04851 12.4351 5.01443C11.7092 4.97962 10.9953 5.2088 10.4252 5.6596C9.85522 6.1104 9.46769 6.75233 9.33428 7.46671C8.57082 11.6008 6.54424 19.3004 6.32939 24.3599C6.18149 27.8255 6.61519 32.9509 10.7683 36.4674C18.6108 43.1108 26.0026 38.486 31.228 31.5628L40.1487 19.955C40.3783 19.6596 40.5475 19.322 40.6466 18.9613C40.7457 18.6006 40.7727 18.2239 40.7262 17.8527C40.6797 17.4815 40.5606 17.1231 40.3756 16.798C40.1906 16.4729 39.9434 16.1874 39.6481 15.9578C39.3527 15.7282 39.0151 15.559 38.6544 15.4599C38.2936 15.3608 37.917 15.3338 37.5458 15.3802C37.1746 15.4267 36.8162 15.5459 36.4911 15.7309C36.166 15.9159 35.8805 16.1631 35.6509 16.4584L37.8843 13.6174Z" fill="#E1D1FB"/>
  <path d="M40.7302 17.9634C40.7956 18.676 40.5893 19.387 40.1527 19.954L31.2309 31.5629C26.0056 38.485 18.6137 43.1098 10.7712 36.4674C8.41187 34.4688 7.25368 31.9506 6.71906 29.5123L7.75533 36.1746C8.32193 38.502 9.48012 40.8763 11.7266 42.779C19.5691 49.4224 26.9609 44.7976 32.1862 37.8744L41.108 26.2656C41.3409 25.9631 41.5104 25.6167 41.6066 25.2473C41.7027 24.8778 41.7235 24.4927 41.6676 24.1151L40.7302 17.9634Z" fill="#0091EB"/>
  <path d="M28.9765 6.61431L30.7733 4.32691C31.0015 4.02965 31.2863 3.78061 31.6114 3.59422C31.9365 3.40783 32.2954 3.28779 32.6672 3.24105C33.039 3.19431 33.4164 3.2218 33.7775 3.32192C34.1386 3.42205 34.4763 3.59283 34.7709 3.82436C35.0656 4.05589 35.3114 4.34358 35.4941 4.67077C35.6768 4.99796 35.7927 5.35814 35.8353 5.73045C35.8778 6.10277 35.846 6.47983 35.7418 6.83978C35.6376 7.19974 35.463 7.53544 35.2282 7.82746L33.4304 10.1159C33.8986 9.53682 34.576 9.16541 35.3159 9.08197C36.0559 8.99853 36.7989 9.20977 37.3843 9.66999C37.9697 10.1302 38.3504 10.8024 38.4439 11.5411C38.5375 12.2799 38.3365 13.0258 37.8843 13.6174L35.6509 16.4584C35.8804 16.1631 36.166 15.9159 36.4911 15.7309C36.8162 15.5459 37.1746 15.4267 37.5458 15.3802C37.9169 15.3338 38.2936 15.3608 38.6544 15.4599C39.0151 15.559 39.3527 15.7282 39.6481 15.9578C39.9434 16.1874 40.1906 16.4729 40.3756 16.798C40.5606 17.1231 40.6797 17.4815 40.7262 17.8527C40.7727 18.2239 40.7456 18.6006 40.6466 18.9613C40.5475 19.322 40.3783 19.6596 40.1487 19.955L31.228 31.5628C26.0026 38.486 18.6108 43.1108 10.7683 36.4674C6.61519 32.9509 6.18149 27.8255 6.32939 24.3599C6.54424 19.3004 8.57082 11.6008 9.33428 7.46671C9.46769 6.75233 9.85522 6.1104 10.4252 5.6596C10.9953 5.2088 11.7092 4.97962 12.4351 5.01443C13.2167 5.04851 13.9552 5.38173 14.498 5.94513C15.0408 6.50853 15.3462 7.25901 15.3511 8.04131L15.393 14.5867L24.5227 3.11276C24.7505 2.81457 25.0354 2.56463 25.3607 2.37746C25.686 2.19029 26.0453 2.06962 26.4176 2.02246C26.7899 1.9753 27.1679 2.00258 27.5296 2.10274C27.8913 2.20289 28.2295 2.37391 28.5245 2.60587C28.8196 2.83782 29.0656 3.12609 29.2483 3.45392C29.431 3.78176 29.5467 4.14262 29.5888 4.51556C29.6308 4.8885 29.5983 5.26608 29.4932 5.62637C29.3881 5.98666 29.2125 6.32247 28.9765 6.61431ZM28.9765 6.61431L21.0281 16.7272M26.5702 18.8437L33.4314 10.1159M37.8853 13.6164L29.9358 23.7293M40.7303 17.9634C40.7956 18.676 40.5893 19.387 40.1527 19.954L31.2309 31.5628C26.0056 38.485 18.6137 43.1098 10.7712 36.4674C8.41189 34.4688 7.2537 31.9506 6.71907 29.5123L7.75535 36.1746C8.32195 38.502 9.48014 40.8763 11.7266 42.779C19.5691 49.4223 26.9609 44.7976 32.1862 37.8744L41.108 26.2655C41.3409 25.963 41.5105 25.6167 41.6066 25.2472C41.7027 24.8778 41.7235 24.4927 41.6676 24.1151L40.7303 17.9634Z" stroke="#1A1F2B" stroke-width="0.49965" stroke-linecap="round" stroke-linejoin="round"/>
</svg>
