<svg width="48" height="48" viewBox="0 0 48 48" fill="none" xmlns="http://www.w3.org/2000/svg">
<path d="M4.90059 5.94696C7.4184 4.15048 10.6132 3.4382 13.7688 4.08953C13.9633 4.13758 15.2437 4.47197 15.2258 4.48993C18.9506 5.76645 24.1234 6.72966 27.3342 9.46161C28.8003 9.35736 30.2707 9.55089 31.6623 10.0192C34.6883 11.0124 37.708 12.0196 40.6945 13.1266C46.3993 15.2494 49.1585 21.9225 47.2307 27.5524C46.2666 30.3632 44.0927 32.6863 41.4563 34.0388L22.1086 43.902C21.5699 44.1767 20.9377 44.225 20.3566 44.027C17.5324 43.321 14.5478 42.1916 11.8439 41.11C11.1581 40.8731 10.999 40.3989 10.5393 39.9391C7.45179 33.373 3.92382 26.86 1.22969 20.1247C0.188668 17.4577 -0.369493 14.7791 0.720902 11.5983C1.50076 9.32352 2.96581 7.3658 4.90059 5.94696ZM1.2375 20.1452C1.2348 20.1384 1.23165 20.1317 1.22969 20.1247L1.2375 20.1452Z" fill="white"/>
<path d="M14.4697 6.61401C9.69657 4.97924 4.53832 7.41126 2.85296 12.3293C2.00317 14.8106 2.39158 16.9029 3.33881 19.3237L12.5875 38.9815L21.0836 41.8933L40.4272 32.0326C42.6617 30.7013 44.2469 29.3015 45.0972 26.8224C46.7813 21.9051 44.2336 16.7098 39.4607 15.074L30.9643 12.1632C29.5492 11.6783 28.0337 11.5633 26.5616 11.8292C25.5666 10.7823 24.3329 9.99195 22.9658 9.52582L14.4687 6.61377L14.4697 6.61401Z" fill="#0091EB"/>
<path d="M36.5865 23.9059C38.2704 18.9896 35.7247 13.7948 30.9538 12.1595C27.1017 10.84 22.9327 12.3795 20.586 15.5868C20.6989 11.6152 18.3187 7.93378 14.4658 6.61304C9.69469 4.97876 4.53941 7.41151 2.85405 12.3295C2.00302 14.8116 2.39044 16.9037 3.33768 19.3244L12.5797 38.9796L31.9175 29.1164C34.1521 27.7851 35.736 26.386 36.5865 23.9059Z" fill="#E1D1FB"/>
<path d="M14.4697 6.61401C9.69662 4.97924 4.53838 7.41126 2.85302 12.3293C2.00323 14.8106 2.39164 16.9029 3.33887 19.3237L12.5875 38.9815L21.0837 41.8933L40.4272 32.0326C42.6618 30.7013 44.247 29.3015 45.0973 26.8224C46.7814 21.9051 44.2336 16.7098 39.4608 15.074L30.9644 12.1632C29.5493 11.6783 28.0337 11.5633 26.5617 11.8292C25.5667 10.7823 24.3329 9.99195 22.9659 9.52582L14.4687 6.61376L14.4697 6.61401Z" stroke="#1A1F2B" stroke-width="0.5" stroke-linecap="round" stroke-linejoin="round"/>
<path d="M36.5865 23.9059C38.2704 18.9896 35.7247 13.7948 30.9538 12.1595C27.1017 10.84 22.9327 12.3795 20.586 15.5868C20.6989 11.6152 18.3187 7.93378 14.4658 6.61304C9.69469 4.97876 4.53941 7.41151 2.85405 12.3295C2.00302 14.8116 2.39044 16.9037 3.33768 19.3244L12.5797 38.9796L31.9175 29.1164C34.1521 27.7851 35.736 26.386 36.5865 23.9059Z" stroke="#1A1F2B" stroke-width="0.5" stroke-linecap="round" stroke-linejoin="round"/>
</svg>
