<svg width="48" height="48" viewBox="0 0 48 48" fill="none" xmlns="http://www.w3.org/2000/svg">
<path d="M44.318 33.1995C47.8335 30.2224 48.0852 25.9709 47.9821 23.555C47.8426 20.2757 47.0012 17.0542 46.3161 13.8567L45.8053 11.5384C45.1638 9.47168 44.0164 7.30756 42.2799 5.95536C41.2358 5.14234 39.9637 4.7426 38.6442 4.80301C37.0591 4.87224 35.6143 5.8612 34.9733 7.30692C33.6407 5.63255 32.4809 3.32259 30.1745 2.91239C28.9399 2.75657 27.72 3.02876 26.7653 3.8704C25.2726 3.34795 23.5707 3.75325 22.4762 4.89383C21.3838 3.75545 19.674 3.34926 18.1862 3.8704C17.2988 3.08841 16.145 2.76374 14.9782 2.88212C12.6245 3.18088 11.3228 5.61809 9.97817 7.30692C9.78035 6.86087 9.50534 6.4478 9.16079 6.09012C8.41047 5.31155 7.38928 4.85114 6.30825 4.80399C5.29953 4.75804 4.30888 5.07811 3.51821 5.7034C1.47238 7.32221 1.34044 11.2716 0.900049 13.4241C0.492 15.4186 0.0951345 17.6375 0.0172368 19.47C-0.100443 22.2279 0.965479 24.8462 0.965479 27.5599C1.30397 29.7209 2.66229 31.8102 4.30239 33.1995C6.37005 34.9509 8.52461 35.7745 10.6422 35.8138C10.7154 37.2626 12.3806 38.5639 13.2555 39.4388C13.9214 40.1676 14.8935 40.2966 15.7897 39.9973C15.6006 40.7805 15.7537 41.6141 16.277 42.1888L18.3073 44.4182C18.9075 44.8984 19.4677 45.2434 20.279 45.1292C20.9746 44.9553 21.6923 44.6134 21.9801 43.8938C22.3832 43.071 23.5333 41.3817 24.4889 41.7552C24.8047 41.9336 26.0618 43.5234 26.8346 44.4251C27.5275 45.1783 28.6493 45.3714 29.5573 44.8782C30.305 44.1305 30.9679 43.5385 30.6569 42.3421C30.5341 41.8509 30.0596 39.8836 30.7995 39.7132C31.3919 39.5772 32.2803 39.7841 32.8024 40.0452C33.7712 40.3823 34.8462 40.0185 35.4118 39.1643C35.9364 38.29 35.9051 37.1948 35.2018 36.4192L33.7868 34.8665C34.1439 35.0361 34.5098 35.1882 34.8854 35.3167C37.9485 36.3646 41.2303 35.8148 44.318 33.1995Z" fill="white"/>
<path d="M24.5251 15.4256C24.5674 15.8868 24.4338 16.347 24.1512 16.714L18.3766 24.2279C14.9944 28.7083 10.21 31.7017 5.13391 27.4024C3.60681 26.1088 2.85716 24.4789 2.51112 22.9007L3.18186 27.2129C3.5486 28.7193 4.29824 30.2561 5.75226 31.4876C10.8284 35.7876 15.6128 32.7942 18.9949 28.3131L24.7696 20.7992C24.9203 20.6034 25.0301 20.3793 25.0923 20.1401C25.1545 19.901 25.168 19.6517 25.1318 19.4073L24.5251 15.4256Z" fill="#0091EB"/>
<path d="M22.683 12.6127C22.9757 12.2298 23.1058 11.747 23.0452 11.2688C22.9846 10.7907 22.7383 10.3556 22.3594 10.0577C21.9805 9.75983 21.4995 9.6231 21.0206 9.67711C20.5416 9.73112 20.1032 9.97152 19.8002 10.3463L20.9638 8.86512C21.1158 8.67611 21.2288 8.45882 21.2963 8.22584C21.3637 7.99286 21.3843 7.74881 21.3567 7.50782C21.3292 7.26684 21.2542 7.03371 21.1359 6.82193C21.0177 6.61016 20.8586 6.42395 20.6678 6.27409C20.4771 6.12423 20.2586 6.01369 20.0248 5.94889C19.7911 5.88408 19.5468 5.86629 19.3062 5.89654C19.0655 5.92679 18.8333 6.00449 18.6228 6.12513C18.4124 6.24577 18.228 6.40696 18.0803 6.59937L16.9174 8.0799C17.0701 7.89101 17.1838 7.67365 17.2518 7.44045C17.3199 7.20725 17.3409 6.96286 17.3136 6.72148C17.2864 6.48009 17.2115 6.24651 17.0933 6.03432C16.975 5.82213 16.8158 5.63555 16.6248 5.48541C16.4338 5.33528 16.215 5.22458 15.9808 5.15976C15.7467 5.09493 15.5021 5.07727 15.2611 5.1078C15.0201 5.13832 14.7876 5.21643 14.577 5.33757C14.3665 5.45872 14.1821 5.62049 14.0346 5.8135L8.12539 13.2401L8.09822 9.00353C8.09505 8.49719 7.89736 8.01144 7.54606 7.64677C7.19476 7.2821 6.71672 7.06643 6.21085 7.04437C5.741 7.02184 5.27889 7.17018 4.90995 7.46196C4.541 7.75374 4.29016 8.16923 4.20382 8.63162C3.70966 11.3074 2.39794 16.2911 2.25888 19.5658C2.16315 21.8089 2.44386 25.1264 5.13198 27.4025C10.2081 31.7024 14.9925 28.709 18.3746 24.228L24.1486 16.7147C24.2972 16.5236 24.4067 16.305 24.4709 16.0715C24.535 15.8381 24.5525 15.5942 24.5224 15.354C24.4924 15.1138 24.4152 14.8818 24.2955 14.6713C24.1758 14.4609 24.0158 14.2761 23.8246 14.1275C23.6334 13.9789 23.4149 13.8694 23.1814 13.8053C22.9479 13.7411 22.7041 13.7236 22.4639 13.7537C22.2236 13.7838 21.9917 13.8609 21.7812 13.9806C21.5708 14.1004 21.386 14.2604 21.2374 14.4516L22.683 12.6127Z" fill="#E1D1FB"/>
<path d="M22.683 12.6127C22.9756 12.2298 23.1058 11.747 23.0452 11.2688C22.9846 10.7907 22.7383 10.3556 22.3594 10.0577C21.9805 9.75983 21.4995 9.6231 21.0206 9.67711C20.5416 9.73112 20.1032 9.97152 19.8002 10.3463M22.683 12.6127L21.2374 14.4516C21.386 14.2604 21.5708 14.1004 21.7812 13.9806C21.9917 13.8609 22.2236 13.7838 22.4639 13.7537C22.7041 13.7236 22.9479 13.7411 23.1814 13.8053C23.4149 13.8694 23.6334 13.9789 23.8246 14.1275C24.0158 14.2761 24.1758 14.4609 24.2955 14.6714C24.4152 14.8818 24.4924 15.1138 24.5224 15.354C24.5525 15.5942 24.535 15.8381 24.4709 16.0715C24.4067 16.305 24.2972 16.5236 24.1486 16.7147L18.3746 24.228C14.9925 28.709 10.2081 31.7024 5.13198 27.4025C2.44386 25.1264 2.16315 21.8089 2.25888 19.5658C2.39794 16.2911 3.70966 11.3074 4.20382 8.63162C4.29016 8.16923 4.541 7.75374 4.90995 7.46196C5.27889 7.17018 5.741 7.02184 6.21085 7.04437C6.71672 7.06643 7.19476 7.2821 7.54606 7.64677C7.89736 8.01144 8.09505 8.49719 8.09822 9.00353L8.12538 13.2401L14.0346 5.8135C14.1821 5.62049 14.3665 5.45872 14.577 5.33757C14.7876 5.21643 15.0201 5.13832 15.2611 5.1078C15.5021 5.07727 15.7467 5.09493 15.9808 5.15976C16.215 5.22458 16.4338 5.33528 16.6248 5.48541C16.8158 5.63555 16.975 5.82213 17.0933 6.03432C17.2115 6.24651 17.2864 6.48009 17.3136 6.72148C17.3409 6.96286 17.3199 7.20725 17.2518 7.44045C17.1838 7.67365 17.0701 7.89101 16.9174 8.0799M22.683 12.6127L17.5383 19.1577M19.8002 10.3463L20.9638 8.86512C21.1158 8.67611 21.2288 8.45882 21.2963 8.22584C21.3637 7.99286 21.3843 7.74881 21.3567 7.50782C21.3292 7.26684 21.2542 7.03371 21.1359 6.82193C21.0177 6.61016 20.8586 6.42395 20.6678 6.27409C20.4771 6.12423 20.2586 6.01369 20.0248 5.94889C19.7911 5.88408 19.5468 5.86629 19.3062 5.89654C19.0655 5.92679 18.8333 6.00449 18.6228 6.12513C18.4124 6.24577 18.228 6.40696 18.0803 6.59937L16.9174 8.0799M19.8002 10.3463L15.3598 15.9955M16.9174 8.0799L11.7727 14.6255M24.5251 15.4256C24.5674 15.8868 24.4338 16.347 24.1512 16.714L18.3766 24.2279C14.9944 28.7083 10.21 31.7017 5.13391 27.4024C3.60681 26.1088 2.85717 24.4789 2.51113 22.9007L3.18186 27.2129C3.5486 28.7193 4.29825 30.2561 5.75226 31.4877C10.8284 35.7876 15.6128 32.7942 18.9949 28.3131L24.7696 20.7992C24.9203 20.6034 25.0301 20.3793 25.0923 20.1401C25.1545 19.901 25.168 19.6518 25.1318 19.4073L24.5251 15.4256Z" stroke="#1A1F2B" stroke-width="0.5" stroke-linecap="round" stroke-linejoin="round"/>
<path d="M22.2694 12.6127C21.9767 12.2298 21.8466 11.747 21.9072 11.2688C21.9677 10.7907 22.2141 10.3556 22.593 10.0577C22.9719 9.75983 23.4529 9.6231 23.9318 9.67711C24.4107 9.73112 24.8491 9.97152 25.1522 10.3463L23.9886 8.86512C23.8366 8.67611 23.7236 8.45882 23.6561 8.22584C23.5887 7.99286 23.5681 7.74881 23.5956 7.50782C23.6232 7.26684 23.6982 7.03371 23.8165 6.82193C23.9347 6.61016 24.0938 6.42395 24.2845 6.27409C24.4752 6.12423 24.6938 6.01369 24.9275 5.94889C25.1613 5.88408 25.4055 5.86629 25.6462 5.89654C25.8869 5.92679 26.1191 6.00449 26.3295 6.12513C26.54 6.24577 26.7244 6.40696 26.872 6.59937L28.035 8.0799C27.8823 7.89101 27.7686 7.67365 27.7005 7.44045C27.6325 7.20725 27.6115 6.96286 27.6387 6.72148C27.6659 6.48009 27.7409 6.24651 27.8591 6.03432C27.9774 5.82213 28.1366 5.63555 28.3276 5.48541C28.5185 5.33528 28.7374 5.22458 28.9715 5.15976C29.2056 5.09493 29.4503 5.07727 29.6913 5.1078C29.9323 5.13832 30.1648 5.21643 30.3754 5.33757C30.5859 5.45872 30.7703 5.62049 30.9178 5.8135L36.827 13.2401L36.8542 9.00353C36.8573 8.49719 37.055 8.01144 37.4063 7.64677C37.7576 7.2821 38.2357 7.06643 38.7415 7.04437C39.2114 7.02184 39.6735 7.17018 40.0424 7.46196C40.4114 7.75374 40.6622 8.16923 40.7486 8.63162C41.2427 11.3074 42.5544 16.2911 42.6935 19.5658C42.7892 21.8089 42.5085 25.1264 39.8204 27.4025C34.7443 31.7024 29.9599 28.709 26.5777 24.228L20.8037 16.7147C20.6551 16.5236 20.5456 16.305 20.4815 16.0715C20.4174 15.8381 20.3998 15.5942 20.4299 15.354C20.46 15.1138 20.5371 14.8818 20.6569 14.6713C20.7766 14.4609 20.9366 14.2761 21.1278 14.1275C21.3189 13.9789 21.5375 13.8694 21.771 13.8053C22.0044 13.7411 22.2483 13.7236 22.4885 13.7537C22.7287 13.7838 22.9607 13.8609 23.1712 13.9806C23.3816 14.1004 23.5664 14.2604 23.715 14.4516L22.2694 12.6127Z" fill="#FFC3A8"/>
<path d="M23.5902 20.3404C23.6547 20.505 23.7426 20.6598 23.8514 20.7999L29.6255 28.3132C33.0076 32.7942 37.792 35.7876 42.8681 31.4877C45.5562 29.2116 45.8369 25.8941 45.7412 23.651C45.6414 21.3006 44.9375 18.0699 44.3654 15.4439C44.1404 14.4112 43.9358 13.4721 43.7963 12.7168C43.5846 11.5833 41.7744 6.9189 39.0295 7.05897C40.7175 7.16025 40.8553 9.08171 40.9117 9.34284C41.5333 12.2259 42.6004 17.3718 42.6936 19.5658C42.7893 21.809 42.5086 25.1264 39.8205 27.4025C34.7444 31.7024 29.96 28.709 26.5778 24.228L23.5902 20.3404Z" fill="#0091EB"/>
<path d="M42.6936 19.5658C42.7893 21.809 42.5086 25.1264 39.8205 27.4025C34.7444 31.7024 29.96 28.709 26.5778 24.228M42.6936 19.5658C42.6004 17.3718 41.5333 12.2259 40.9116 9.34284C40.8553 9.08171 40.7175 7.16025 39.0295 7.05897C41.7744 6.9189 43.5846 11.5833 43.7963 12.7168C43.9358 13.4721 44.1404 14.4112 44.3654 15.4439C44.9375 18.0699 45.6414 21.3006 45.7412 23.651C45.8369 25.8941 45.5562 29.2116 42.8681 31.4877C37.792 35.7876 33.0076 32.7942 29.6255 28.3132L23.8514 20.7999C23.7426 20.6598 23.6547 20.505 23.5902 20.3404L26.5778 24.228M42.6936 19.5658C42.5545 16.2911 41.2427 11.3074 40.7486 8.63162C40.6622 8.16923 40.4114 7.75374 40.0424 7.46196C39.6735 7.17018 39.2114 7.02184 38.7415 7.04437C38.2357 7.06643 37.7576 7.2821 37.4063 7.64677C37.055 8.01144 36.8573 8.49719 36.8542 9.00353L36.827 13.2401L30.9178 5.8135C30.7703 5.62049 30.5859 5.45872 30.3754 5.33757C30.1648 5.21643 29.9323 5.13832 29.6913 5.1078C29.4503 5.07727 29.2056 5.09493 28.9715 5.15976C28.7374 5.22458 28.5185 5.33528 28.3276 5.48541C28.1366 5.63555 27.9774 5.82213 27.8591 6.03432C27.7409 6.24651 27.6659 6.48009 27.6387 6.72148C27.6115 6.96286 27.6325 7.20725 27.7005 7.44045C27.7686 7.67365 27.8823 7.89101 28.035 8.0799M26.5778 24.228L20.8037 16.7147C20.6551 16.5236 20.5456 16.305 20.4815 16.0715C20.4174 15.8381 20.3998 15.5942 20.4299 15.354C20.46 15.1138 20.5371 14.8818 20.6569 14.6714C20.7766 14.4609 20.9366 14.2761 21.1278 14.1275C21.3189 13.9789 21.5375 13.8694 21.771 13.8053C22.0044 13.7411 22.2483 13.7236 22.4885 13.7537C22.7287 13.7838 22.9607 13.8609 23.1712 13.9806C23.3816 14.1004 23.5664 14.2604 23.715 14.4516L22.2694 12.6127M22.2694 12.6127C21.9767 12.2298 21.8466 11.747 21.9072 11.2688C21.9677 10.7907 22.2141 10.3556 22.593 10.0577C22.9719 9.75983 23.4529 9.6231 23.9318 9.67711C24.4107 9.73112 24.8491 9.97152 25.1522 10.3463M22.2694 12.6127L27.4141 19.1577M25.1522 10.3463L23.9886 8.86512C23.8366 8.67611 23.7236 8.45882 23.6561 8.22584C23.5887 7.99286 23.5681 7.74881 23.5956 7.50782C23.6232 7.26684 23.6982 7.03371 23.8165 6.82193C23.9347 6.61016 24.0938 6.42395 24.2845 6.27409C24.4752 6.12423 24.6938 6.01369 24.9275 5.94889C25.1613 5.88408 25.4055 5.86629 25.6462 5.89654C25.8868 5.92679 26.1191 6.00449 26.3295 6.12513C26.54 6.24577 26.7243 6.40696 26.872 6.59937L28.035 8.0799M25.1522 10.3463L29.5926 15.9955M28.035 8.0799L33.1797 14.6255M20.4273 15.4256C20.385 15.8868 20.5185 16.347 20.8011 16.714L26.5758 24.2279C29.9579 28.7083 34.7423 31.7017 39.8185 27.4024C41.3456 26.1088 42.0952 24.4789 42.4412 22.9007" stroke="#1A1F2B" stroke-width="0.5" stroke-linecap="round" stroke-linejoin="round"/>
<path d="M17.9347 22.1983C19.3207 25.0278 21.352 25.6872 22.1945 25.6632C23.0369 25.6867 25.0683 25.0278 26.4543 22.1983C25.8048 24.6767 25.9055 29.1422 31.5086 27.1792C30.2049 28.0202 28.6019 29.6204 28.5642 31.4376C28.6019 33.2552 30.2044 34.8554 31.5086 35.6969C25.9055 33.7334 25.8043 38.1989 26.4543 40.6773C25.0683 37.8478 23.0369 37.1884 22.195 37.2124C21.3525 37.1884 19.3207 37.8478 17.9347 40.6773C18.5841 38.1989 18.4834 33.7334 12.8808 35.6965C14.1845 34.8554 15.7871 33.2552 15.8247 31.4376C15.7871 29.6204 14.1845 28.0202 12.8808 27.1792C18.4834 29.1422 18.5846 24.6767 17.9342 22.1983H17.9347Z" fill="#C2DFFB"/>
<path d="M17.9347 40.6778L19.966 42.9067C21.352 40.0772 23.3833 39.4178 24.2253 39.4423C24.6461 39.4301 25.3619 39.5882 26.146 40.1012C24.7826 37.7569 22.9762 37.1903 22.1945 37.2129C21.352 37.1888 19.3207 37.8487 17.9347 40.6778Z" fill="#0091EB"/>
<path d="M12.8808 35.6965L14.9121 37.9254C16.2808 37.4459 17.3214 37.3498 18.1031 37.515C17.7454 35.7638 16.3966 34.4643 12.8808 35.6965Z" fill="#0091EB"/>
<path d="M26.4542 40.6768L28.486 42.9068C27.8365 40.4283 27.9372 35.9628 33.5403 37.9259L31.5089 35.6969C25.9064 33.7334 25.8047 38.1989 26.4551 40.6773L26.4542 40.6768Z" fill="#0091EB"/>
<path d="M31.0958 35.4126C30.7984 34.8695 30.6077 34.2812 30.595 33.6679C30.6327 31.8503 32.2352 30.2501 33.5389 29.4086L31.5081 27.1796C30.2044 28.0206 28.6014 29.6208 28.5637 31.4385C28.5976 33.0679 29.8895 34.5231 31.0958 35.4126Z" fill="#0091EB"/>
<path d="M28.3176 27.5896C28.1058 26.5494 28.2437 25.3507 28.4856 24.4277L26.4543 22.1983C25.9634 24.0715 25.9008 27.0789 28.3176 27.5896Z" fill="#0091EB"/>
<path d="M26.4543 22.1983C25.0683 25.0278 23.0369 25.6867 22.1945 25.6632C21.352 25.6872 19.3207 25.0278 17.9347 22.1983C18.5851 24.6767 18.4834 29.1422 12.8808 27.1792C14.1845 28.0202 15.7871 29.6204 15.8247 31.4376C15.7871 33.2552 14.1845 34.8554 12.8808 35.6965M26.4543 22.1983C25.8048 24.6767 25.9055 29.1422 31.5086 27.1792M26.4543 22.1983L28.4856 24.4278C28.2437 25.3507 28.1058 26.5494 28.3176 27.5896C25.9008 27.0789 25.9634 24.0715 26.4543 22.1983ZM31.5086 27.1792C30.2049 28.0202 28.6019 29.6204 28.5642 31.4376C28.6019 33.2552 30.2044 34.8554 31.5086 35.6969M31.5086 27.1792L33.5389 29.4086C32.2352 30.2501 30.6327 31.8503 30.595 33.6679C30.6077 34.2812 30.7984 34.8695 31.0958 35.4126C29.8895 34.5231 28.5976 33.0679 28.5637 31.4385C28.6014 29.6208 30.2049 28.0202 31.5086 27.1792ZM31.5086 35.6969C25.9055 33.7334 25.8043 38.1989 26.4543 40.6773M31.5086 35.6969L33.5403 37.9259C27.9372 35.9628 27.8365 40.4283 28.486 42.9068L26.4543 40.6773M26.4543 40.6773C25.0683 37.8478 23.0369 37.1884 22.195 37.2124M22.195 37.2124C21.3525 37.1884 19.3207 37.8478 17.9347 40.6773M22.195 37.2124C22.9767 37.1898 24.7826 37.7569 26.146 40.1012C25.3619 39.5882 24.6461 39.4301 24.2253 39.4423C23.3833 39.4178 21.352 40.0772 19.966 42.9067L17.9347 40.6773M17.9347 40.6773C18.5841 38.1989 18.4834 33.7334 12.8808 35.6965M12.8808 35.6965L14.9121 37.9255C16.2808 37.4459 17.3214 37.3498 18.1031 37.515C17.7454 35.7638 16.3966 34.4643 12.8808 35.6965Z" stroke="#1A1F2B" stroke-width="0.5" stroke-linecap="round" stroke-linejoin="round"/>
</svg>
