<svg width="48" height="48" viewBox="0 0 48 48" fill="none" xmlns="http://www.w3.org/2000/svg">
  <path d="M22.3573 0.00173427C29.3142 0.100383 35.3432 4.83794 39.0425 10.4458C41.0759 13.5285 42.4723 17.0996 42.4239 20.5339C42.3463 26.0391 39.7505 31.4807 36.6524 36.057C33.7962 40.276 30.3639 44.069 26.67 47.4741C25.8881 48.1948 24.6771 48.1723 23.9229 47.4226C22.5231 46.031 21.3954 44.7867 20.0749 43.5736C17.0903 40.8502 13.4864 36.2365 10.6415 31.3224C7.96474 26.6985 5.43905 21.3529 5.58777 15.8876C5.94173 6.95097 13.3619 -0.12371 22.3573 0.00173427ZM24.6863 17.7393C24.0953 18.0139 23.5963 18.5082 23.3205 19.1071C23.9141 18.8274 24.409 18.3335 24.6863 17.7393Z" fill="white"/>
  <path d="M29.8943 4.50836C33.8997 7.0984 36.5233 11.6298 36.4508 16.751C36.3135 26.4865 27.1787 36.7685 21.5823 41.9325C22.6109 43.0135 23.584 43.9703 24.4584 44.8299C24.7613 45.1276 25.0523 45.4137 25.3297 45.6893C30.9257 40.5269 40.0658 30.2416 40.2031 20.5032C40.2836 14.8196 35.518 7.96194 29.8943 4.50836Z" fill="#0091EB"/>
  <path d="M20.9634 21.4632C20.8687 21.0626 20.8226 20.6487 20.8285 20.2302C20.8475 18.8913 21.3976 17.6147 22.3578 16.6814C23.5829 15.4906 25.38 14.9963 27.0385 15.3882C26.676 13.8544 25.5724 12.5372 24.1227 11.9126C22.2724 11.1154 20.0551 11.5201 18.6055 12.9291C16.6336 14.8459 16.5874 18.0968 18.5042 20.0687C19.1797 20.7636 20.0349 21.2437 20.9634 21.4632Z" fill="#FFC3A8"/>
  <path d="M22.327 2.2222C30.239 2.33422 36.5628 8.83858 36.451 16.7505C36.3138 26.4889 27.173 36.7746 21.577 41.937C16.0242 36.8734 7.68699 24.2587 7.79772 16.3462C7.91033 8.43503 14.4146 2.11147 22.327 2.2222ZM22.1962 11.5015C19.4464 11.4625 17.115 13.7283 17.076 16.4781C17.0376 19.1972 19.3032 21.5971 22.0536 21.5972C24.563 21.5972 27.1348 19.3703 27.1737 16.6206C27.2125 13.8709 24.9459 11.5403 22.1962 11.5015Z" fill="#E1D1FB"/>
  <path d="M36.4508 16.751C36.5233 11.6298 33.8997 7.0984 29.8943 4.50836C35.5181 7.96194 40.2836 14.8196 40.2031 20.5032C40.0658 30.2417 30.9257 40.5269 25.3297 45.6893C24.2515 44.6181 22.9671 43.388 21.5823 41.9325C27.1788 36.7685 36.3135 26.4865 36.4508 16.751ZM36.4508 16.751C36.5628 8.83882 30.2391 2.33436 22.327 2.22235C14.4145 2.11162 7.91007 8.43516 7.7976 16.3465C7.68687 24.259 16.0244 36.8734 21.5773 41.937C27.1732 36.7746 36.3135 26.4894 36.4508 16.751ZM26.8163 14.6832C26.9077 14.913 26.9818 15.1486 27.0385 15.3882C25.38 14.9963 23.5828 15.4906 22.3578 16.6814C21.0968 17.9071 20.5427 19.7157 20.9461 21.4226C20.0176 21.2031 19.1797 20.7636 18.5042 20.0687M26.8163 14.6832C26.0695 12.8059 24.2165 11.5296 22.1963 11.5011C19.4465 11.4621 17.1152 13.7282 17.0762 16.4779C17.0572 17.8169 17.5709 19.1085 18.5042 20.0687M26.8163 14.6832C27.563 16.5605 27.0929 18.761 25.6443 20.1693C23.6798 22.0792 20.4308 22.0507 18.5042 20.0687M26.744 2.98202C25.847 2.66461 24.947 2.44852 24.0586 2.35064C24.9852 2.47568 25.8832 2.6891 26.744 2.98202Z" stroke="#1A1F2B" stroke-width="0.496645"/>
</svg>
