<svg width="48" height="48" viewBox="0 0 48 48" fill="none" xmlns="http://www.w3.org/2000/svg">
  <path d="M26.1788 26.1969C26.1683 27.5267 25.8898 28.8425 25.3593 30.0635C25.2925 30.2171 25.22 30.3681 25.1457 30.5177C25.6026 30.111 26.0992 29.746 26.6282 29.4276C27.6479 28.814 28.7642 28.3933 29.9218 28.177V19.4947L26.1788 19.0357V26.1969ZM48.0015 32.8342C47.9912 34.1406 47.7219 35.4322 47.21 36.6342C46.6979 37.8363 45.952 38.9264 45.0172 39.8388C44.9535 39.901 44.8976 39.9468 44.8761 39.9645L38.2494 45.417C38.2302 45.4328 38.2095 45.4456 38.1914 45.4595C37.3534 46.177 36.3971 46.7575 35.354 47.1652C33.5102 47.8859 31.4923 48.0398 29.5603 47.604C27.6286 47.1682 25.8708 46.1639 24.5146 44.7212C23.2434 43.3686 22.3786 41.6875 22.0155 39.8717L21.9498 39.5064C21.6345 37.5515 21.9116 35.5464 22.7451 33.7504C22.7859 33.6625 22.8284 33.575 22.8717 33.4885L16.4586 38.7516C15.5642 39.4854 14.6147 40.1067 13.5323 40.5298C11.8029 41.2057 9.92091 41.3817 8.10098 41.042L7.7376 40.9676C5.80599 40.5317 4.04813 39.5277 2.69193 38.0848C1.42064 36.7319 0.556578 35.0502 0.193735 33.2353L0.128019 32.87C-0.187244 30.915 0.0900148 28.9107 0.923382 27.115C1.75702 25.319 3.10957 23.8124 4.80645 22.7912C5.82614 22.1776 6.94241 21.7569 8.10001 21.5406L8.10194 7.61165C8.08692 6.94896 8.36917 6.28893 8.91373 5.84117L8.9176 5.83827L15.2525 0.656328C15.2996 0.617778 15.3489 0.581167 15.3994 0.547123L15.4409 0.519097L15.6303 0.406025C15.9831 0.221709 16.3756 0.137482 16.7659 0.155723L16.9331 0.169253L46.0397 3.73921C46.1764 3.75554 46.3435 3.78774 46.5268 3.85324L46.7258 3.93539L46.7278 3.93635C47.4952 4.30005 48.0011 5.07683 48.0015 5.94747V32.8342ZM37.9749 45.6083C37.9749 45.6083 37.9804 45.6053 37.9865 45.6016C37.989 45.6001 37.9918 45.5979 37.9952 45.5958C37.9822 45.6036 37.9712 45.6105 37.9749 45.6083ZM38.0039 45.591C38.0011 45.5927 37.998 45.5941 37.9952 45.5958C37.9984 45.5938 38.0019 45.5914 38.0058 45.589L38.0039 45.591Z" fill="white"/>
  <path d="M39.439 37.9981C39.4303 39.078 39.1938 40.1439 38.745 41.1262C38.2962 42.1084 37.6451 42.9849 36.8343 43.6982L43.4617 38.2455C44.1866 37.5381 44.7642 36.6941 45.1612 35.7623C45.5581 34.8305 45.7665 33.8293 45.7745 32.8165V5.94847L39.44 11.1311V37.9991L39.439 37.9981Z" fill="#0091EB"/>
  <path d="M23.9525 16.5185L17.617 15.7417V31.3607C17.6083 32.4345 17.3743 33.4944 16.9302 34.472C16.4862 35.4496 15.8419 36.3232 15.039 37.0362L21.5606 31.6843C22.3089 30.9746 22.9064 30.1213 23.3174 29.1754C23.7283 28.2295 23.9444 27.2104 23.9525 26.1791V16.5185Z" fill="#0091EB"/>
  <path d="M45.7685 5.94946L16.662 2.37893L10.3275 7.56055L39.433 11.1311L45.7685 5.94946Z" fill="#FFC3A8"/>
  <path d="M39.4359 11.1311L10.3304 7.56055L10.3265 23.6081C8.79278 23.5272 7.26996 23.9071 5.95406 24.6991C4.63816 25.491 3.58941 26.6587 2.94282 28.0518C2.29623 29.4449 2.0814 30.9996 2.32599 32.5159C2.57058 34.0321 3.26338 35.4404 4.31522 36.5595C5.36706 37.6786 6.72978 38.4573 8.22796 38.7953C9.72613 39.1333 11.2912 39.0152 12.7216 38.4561C14.1521 37.897 15.3825 36.9225 16.2544 35.6582C17.1263 34.3939 17.5998 32.8975 17.614 31.3617V15.7417L32.1484 17.525V30.2445C30.6147 30.1635 29.0919 30.5435 27.776 31.3354C26.4601 32.1274 25.4114 33.2951 24.7648 34.6881C24.1182 36.0812 23.9034 37.636 24.1479 39.1522C24.3925 40.6684 25.0853 42.0768 26.1372 43.1959C27.189 44.315 28.5517 45.0937 30.0499 45.4317C31.5481 45.7697 33.1131 45.6515 34.5436 45.0924C35.9741 44.5333 37.2044 43.5589 38.0763 42.2946C38.9482 41.0302 39.4218 39.5338 39.4359 37.9981V11.1301V11.1311Z" fill="#E1D1FB"/>
  <path d="M39.4359 11.1311L10.3304 7.56055L10.3265 23.6081C8.79278 23.5272 7.26996 23.9071 5.95406 24.6991C4.63816 25.491 3.58941 26.6587 2.94282 28.0518C2.29623 29.4449 2.0814 30.9996 2.32599 32.5159C2.57058 34.0321 3.26338 35.4404 4.31522 36.5595C5.36706 37.6786 6.72978 38.4573 8.22796 38.7953C9.72613 39.1333 11.2912 39.0152 12.7216 38.4561C14.1521 37.897 15.3825 36.9225 16.2544 35.6582C17.1263 34.3939 17.5998 32.8975 17.614 31.3617V15.7417L32.1484 17.525V30.2445C30.6147 30.1635 29.0919 30.5435 27.776 31.3354C26.4601 32.1274 25.4114 33.2951 24.7648 34.6881C24.1182 36.0812 23.9034 37.636 24.1479 39.1522C24.3925 40.6684 25.0853 42.0768 26.1372 43.1959C27.189 44.315 28.5517 45.0937 30.0499 45.4317C31.5481 45.7697 33.1131 45.6515 34.5436 45.0924C35.9741 44.5333 37.2044 43.5589 38.0763 42.2946C38.9482 41.0302 39.4218 39.5338 39.4359 37.9981V11.1311Z" stroke="#1A1F2B" stroke-width="0.5" stroke-linecap="square" stroke-linejoin="round"/>
  <path d="M45.7685 5.94946L16.662 2.37893L10.3275 7.56055L39.433 11.1311L45.7685 5.94946Z" stroke="#1A1F2B" stroke-width="0.5" stroke-linecap="square" stroke-linejoin="round"/>
  <path d="M39.439 37.9981C39.4303 39.078 39.1938 40.1439 38.745 41.1262C38.2962 42.1084 37.6451 42.9849 36.8343 43.6982L43.4617 38.2455C44.1866 37.5381 44.7642 36.6941 45.1612 35.7623C45.5581 34.8305 45.7665 33.8293 45.7745 32.8165V5.94847L39.44 11.1311V37.9991L39.439 37.9981Z" stroke="#1A1F2B" stroke-width="0.5" stroke-linecap="square" stroke-linejoin="round"/>
  <path d="M23.9525 16.5185L17.617 15.7417V31.3607C17.6083 32.4345 17.3743 33.4944 16.9302 34.472C16.4862 35.4496 15.8419 36.3232 15.039 37.0362L21.5606 31.6843C22.3089 30.9746 22.9064 30.1213 23.3174 29.1754C23.7283 28.2295 23.9443 27.2104 23.9525 26.1791V16.5185Z" stroke="#1A1F2B" stroke-width="0.5" stroke-linecap="square" stroke-linejoin="round"/>
</svg>
