<svg width="48" height="48" viewBox="0 0 48 48" fill="none" xmlns="http://www.w3.org/2000/svg">
  <path d="M9.4187 2.89252C10.3156 1.34027 12.2905 0.867245 13.8337 1.71088L46.2693 20.4374C47.2071 20.9789 47.9236 22.095 47.9197 23.2011L47.9031 27.9013V27.9033C47.9012 28.3026 47.7936 28.6959 47.5886 29.041L45.4773 32.5937C44.9342 33.5052 43.8397 33.9619 42.8015 33.6083C41.3193 33.1027 40.2847 33.3527 39.6218 33.7519C40.1831 34.3971 40.3991 35.1394 40.5076 35.9677C40.6161 36.796 40.7458 40.539 40.7458 40.539C40.7667 40.9518 40.6739 41.3807 40.4548 41.7656L40.4519 41.7695L38.2009 45.7031C37.7982 46.4068 37.0998 46.7703 36.4187 46.8222C35.9747 46.8684 35.4982 46.7873 35.0642 46.5371L1.22144 26.9824C0.52658 26.5806 0.0980466 25.8382 0.0983889 25.0361V25.0331L0.107178 20.4638C0.108777 19.6933 0.150601 18.9455 0.547608 18.2578L2.02612 15.6972C2.90603 14.1743 4.59167 13.8571 5.83472 14.1718L6.30054 14.3076C7.02941 14.4836 7.79471 14.3384 8.40991 13.9306L8.08472 13.5663L8.08374 13.5644C7.723 13.1598 7.52289 12.6405 7.5144 12.1044V12.0996L7.45093 7.33881L7.44995 7.33588C7.44254 6.70402 7.62646 5.99708 7.93921 5.45502L9.41772 2.8935L9.4187 2.89252Z" fill="white"/>
  <path d="M38.5058 40.6341L36.2542 44.5687L36.1518 39.9016L38.2833 36.2368L38.5058 40.6341Z" fill="#0091EB"/>
  <path d="M43.5509 31.4244L43.4324 26.884C43.4324 26.884 43.5149 26.8242 43.5588 26.7876C43.6281 26.7299 43.6665 26.6468 43.6665 26.6468L45.6774 23.1735L45.6609 27.8737L43.5509 31.4244Z" fill="#0091EB"/>
  <path d="M43.4324 26.884L43.5509 31.4244C39.6886 30.1069 37.3934 32.3271 36.7392 33.583C35.9271 32.7708 35.7917 30.3118 36.8746 28.8003C38.9335 25.9264 42.0337 26.2824 43.4324 26.884Z" fill="#0091EB"/>
  <path d="M11.3636 4.01668C11.6358 3.54525 12.2386 3.38373 12.71 3.65591L45.1465 22.3831C45.6179 22.6553 45.7794 23.2581 45.5072 23.7295L44.0288 26.2903C43.7566 26.7617 43.1551 26.9121 42.6391 26.7384C40.4612 26.0055 37.9971 26.881 36.8039 28.9477C35.6107 31.0144 36.0845 33.5862 37.8082 35.1058C38.2166 35.4658 38.3871 36.0619 38.1149 36.5333L36.6365 39.0941C36.3643 39.5655 35.7615 39.7271 35.29 39.4549L2.85363 20.7277C2.3822 20.4555 2.22068 19.8527 2.49286 19.3813L3.97132 16.8205C4.2435 16.3491 4.84501 16.1987 5.36093 16.3723C7.53884 17.1053 10.003 16.2298 11.1962 14.1631C12.3894 12.0964 11.9155 9.52462 10.1918 8.00498C9.7835 7.645 9.61299 7.04887 9.88516 6.57745L11.3636 4.01668Z" fill="#E1D1FB"/>
  <path d="M31.3825 18.8749C31.6547 18.4034 32.2575 18.2419 32.7289 18.5141L34.8017 19.7108C35.2732 19.983 35.4347 20.5858 35.1625 21.0572L29.1498 31.4715C28.8777 31.9429 28.2748 32.1044 27.8034 31.8323L25.7306 30.6355C25.2592 30.3633 25.0977 29.7605 25.3698 29.2891L31.3825 18.8749Z" fill="#FFC3A8"/>
  <path d="M2.34473 25.0375L2.35308 20.4677L36.1667 40.0066L36.1872 44.591L2.34473 25.0375Z" fill="#FFC3A8"/>
  <path d="M9.76098 12.0689L9.69709 7.30884C11.9294 9.32765 12.2951 11.8533 11.3583 13.8579L9.76098 12.0689Z" fill="#FFC3A8"/>
  <path d="M43.4279 27.0715L43.547 31.4437L45.657 27.8929L45.6735 23.1927L43.4279 27.0715ZM43.4279 27.0715L43.5258 31.4816C39.6636 30.1641 37.356 32.4354 36.7018 33.6913C36.0717 32.5267 35.7878 30.331 36.8707 28.8195C38.9296 25.9456 42.0292 26.4699 43.4279 27.0715ZM12.71 3.6559C12.2386 3.38372 11.6358 3.54524 11.3636 4.01667L9.88514 6.57744C9.61296 7.04886 9.57184 7.4584 10.1918 8.00497C11.9155 9.52461 12.3894 12.0964 11.1962 14.1631C10.0029 16.2298 7.53882 17.1053 5.36091 16.3723C4.84499 16.1987 4.24348 16.3491 3.9713 16.8205L2.49284 19.3813C2.22066 19.8527 2.34473 20.4339 2.85361 20.7277L35.29 39.4549C35.7614 39.727 36.3642 39.5655 36.6364 39.0941L38.1149 36.5333C38.3871 36.0619 38.2166 35.4658 37.8082 35.1058C36.0845 33.5862 35.6106 31.0144 36.8039 28.9477C37.9971 26.881 40.6372 26.2365 42.6525 26.8063C43.1684 26.98 43.5527 26.8572 43.8249 26.3858L45.566 23.3784C45.8382 22.907 45.6178 22.6552 45.1464 22.3831L12.71 3.6559ZM25.7306 30.6355L27.8034 31.8322C28.2748 32.1044 28.8777 31.9429 29.1498 31.4715L35.1625 21.0572C35.4347 20.5858 35.2732 19.983 34.8017 19.7108L32.7289 18.5141C32.2575 18.2419 31.6547 18.4034 31.3825 18.8748L25.3698 29.2891C25.0977 29.7605 25.2592 30.3633 25.7306 30.6355ZM2.35308 20.4677L2.34473 25.0375L36.1872 44.591L36.1667 40.0066L2.35308 20.4677ZM36.2503 44.5879L38.502 40.6533L38.2794 36.2561L36.148 39.9208L36.2503 44.5879ZM9.69709 7.30883L9.76098 12.0689L11.3583 13.8579C12.2951 11.8533 11.9294 9.32764 9.69709 7.30883Z" stroke="#1A1F2B" stroke-width="0.5" stroke-linejoin="round"/>
</svg>
