<svg width="48" height="48" viewBox="0 0 48 48" fill="none" xmlns="http://www.w3.org/2000/svg">
  <path d="M18.3297 38.7246L12.3589 39.4248C11.1459 39.6223 10.1646 40.5988 10.1646 41.8867V43.6191C10.1663 45.5342 12.4928 46.5131 13.8726 47.4541C13.878 47.4578 13.8828 47.4622 13.8882 47.4658C13.9437 47.5029 14.5851 47.9997 15.4996 48H35.3502C36.7177 47.9999 37.8266 46.8913 37.8267 45.5234L37.8189 43.5938C37.801 43.3682 37.7458 43.0651 37.5894 42.7422C37.351 42.2962 36.9982 41.9626 36.5845 41.6807C33.1203 39.3214 33.9896 39.5671 29.6148 39.0566V34.5361C35.1047 32.769 39.0795 27.6271 39.0797 21.5469C39.0796 20.9027 39.0343 20.2665 38.9468 19.6416L36.8043 3.66699C36.6726 3.06332 36.3142 2.66121 35.8589 2.28223C34.8402 1.60315 33.2232 2.47612e-05 31.7574 0H13.775C12.754 0.000264451 11.8565 0.693424 11.605 1.68555L9.14996 17.1348C8.80182 19.0097 8.84993 20.9634 9.29254 22.8184L9.40387 23.2539C10.5538 28.2681 14.2526 31.6685 18.3297 33.5225V38.7246Z" fill="white"/>
  <path d="M12.5116 43.8166C12.5488 43.8407 12.5928 43.8557 12.6405 43.8558H32.4906C32.6222 43.8558 32.7294 43.7485 32.7294 43.6169V41.8858C32.7294 41.8146 32.6975 41.7501 32.6472 41.7062L35.3241 43.5309C35.5212 43.6685 35.5885 43.6701 35.5887 43.7917V45.5238C35.5887 45.6554 35.4824 45.7616 35.3508 45.7617H15.5008C15.3692 45.7617 15.2783 45.7022 15.133 45.605L12.5116 43.8166Z" fill="#0091EB"/>
  <path d="M34.6171 4.14427L36.7294 19.9417C36.8032 20.4661 36.8411 21.002 36.8412 21.5467C36.8412 27.1854 32.7516 31.869 27.3766 32.7929V41.0499L24.5163 40.7175V30.8861C29.8913 29.9623 33.9807 25.2794 33.9809 19.6408C33.9809 19.0959 33.943 18.5594 33.8691 18.0349L31.7578 2.24219H31.7616L34.6171 4.14427Z" fill="#0091EB"/>
  <path d="M11.5639 22.6664C12.7175 26.8718 16.2173 30.1065 20.5679 30.8765V32.0201C16.3788 30.5178 12.6038 27.3642 11.5639 22.6664Z" fill="#0091EB"/>
  <path d="M31.7577 2.23743H13.7746L11.3506 17.5435C11.2244 18.2232 11.1584 18.9241 11.1584 19.6404C11.1584 25.2597 15.22 29.9303 20.5676 30.8768C20.5676 31.7704 20.5676 38.5707 20.5676 40.7177L12.6158 41.6485C12.4944 41.6612 12.4023 41.7635 12.4023 41.8855V43.6171C12.4023 43.7488 12.509 43.8555 12.6406 43.8555H32.4909C32.6225 43.8555 32.7292 43.7488 32.7292 43.6171V41.8856C32.7292 41.7635 32.6369 41.6612 32.5155 41.6486L24.5164 40.7175C24.5164 38.7262 24.5164 31.7987 24.5164 30.8865C29.8915 29.9627 33.9813 25.2792 33.9813 19.6404C33.9813 19.0955 33.9431 18.5595 33.8693 18.0349L31.7577 2.23743Z" fill="#E1D1FB"/>
  <path d="M31.6565 18.9777C31.6565 23.9962 27.5883 28.0644 22.5698 28.0644C18.1403 28.0644 14.4511 24.895 13.6462 20.7002C14.9876 21.2714 16.3679 21.4564 18.0044 21.4564C21.1209 21.4564 23.6681 16.5043 26.4146 16.5043C28.8906 16.5043 29.9437 16.86 31.5555 17.6179C31.622 18.0615 31.6565 18.5156 31.6565 18.9777Z" fill="#FFC3A8"/>
  <path d="M12.6405 43.8557C12.5928 43.8557 12.5488 43.8407 12.5116 43.8166L15.133 45.605C15.2783 45.7022 15.3692 45.7616 15.5008 45.7616H35.3508C35.4177 45.7616 35.478 45.7342 35.5212 45.6899M12.6405 43.8557H32.4905M12.6405 43.8557C12.5089 43.8557 12.4023 43.7488 12.4023 43.6171V41.8855C12.4023 41.7635 12.4944 41.6612 12.6158 41.6485L20.5676 40.7177C20.5676 38.5707 20.5679 31.7701 20.5679 30.8765M32.4905 43.8557C32.5532 43.8557 32.6104 43.8314 32.653 43.7917M32.4905 43.8557C32.6222 43.8557 32.7294 43.7485 32.7294 43.6169M32.7294 43.6169V41.8858M32.7294 43.6169C32.7294 43.6858 32.7 43.7481 32.653 43.7917M32.7294 41.8858C32.7294 41.8146 32.6975 41.7501 32.6472 41.7062L35.3241 43.5309C35.5212 43.6685 35.5885 43.6701 35.5887 43.7917V45.5238C35.5887 45.5885 35.563 45.6471 35.5212 45.6899M32.7294 41.8858C32.7294 41.7638 32.6369 41.6612 32.5155 41.6486L24.5163 40.7175M27.3766 32.7929C32.7516 31.869 36.8412 27.1853 36.8412 21.5467C36.8411 21.0019 36.8032 20.4661 36.7294 19.9417L34.6171 4.14425L31.7616 2.24217H31.7578L33.8691 18.0349M27.3766 32.7929V41.0499L24.5163 40.7175M27.3766 32.7929L24.5163 30.8861M24.5163 40.7175V30.8861M24.5163 40.7175C24.5163 38.7262 24.5163 31.7982 24.5163 30.8861M24.5163 30.8861C29.8913 29.9623 33.9807 25.2794 33.9809 19.6408C33.9809 19.0959 33.943 18.5594 33.8691 18.0349M33.8691 18.0349L31.7577 2.23743H13.7746L11.3506 17.5435C11.2244 18.2232 11.1584 18.9241 11.1584 19.6404C11.1584 25.2597 15.2203 29.9301 20.5679 30.8765M20.5679 30.8765C16.2173 30.1065 12.7175 26.8717 11.5639 22.6663C12.6038 27.3641 16.3788 30.5178 20.5679 32.0201V30.8765ZM35.5212 45.6899L32.653 43.7917M31.6565 18.9777C31.6565 23.9961 27.5883 28.0644 22.5698 28.0644C18.1403 28.0644 14.4511 24.8949 13.6462 20.7002C14.9876 21.2714 16.3679 21.4564 18.0044 21.4564C21.1209 21.4564 23.6681 16.5043 26.4146 16.5043C28.8906 16.5043 29.9437 16.86 31.5555 17.6179C31.622 18.0615 31.6565 18.5156 31.6565 18.9777Z" stroke="#1A1F2B" stroke-width="0.5" stroke-linejoin="round"/>
</svg>
